<?xml version="1.0" standalone="no"?>
<!DOCTYPE svg PUBLIC "-//W3C//DTD SVG 20010904//EN"
 "http://www.w3.org/TR/2001/REC-SVG-20010904/DTD/svg10.dtd">
<svg version="1.0" xmlns="http://www.w3.org/2000/svg"
 width="1080.000000pt" height="1080.000000pt" viewBox="0 0 1080.000000 1080.000000"
 preserveAspectRatio="xMidYMid meet">
<metadata>
Created by potrace 1.14, written by Peter Selinger 2001-2017
</metadata>
<g transform="translate(0.000000,1080.000000) scale(0.100000,-0.100000)"
fill="#000000" stroke="none">
<path d="M0 5400 l0 -5400 5400 0 5400 0 0 5400 0 5400 -5400 0 -5400 0 0
-5400z m5690 4500 c999 -70 1909 -442 2655 -1084 95 -82 376 -362 450 -448 33
-39 65 -75 70 -82 41 -47 134 -168 193 -251 39 -55 75 -104 79 -110 100 -127
313 -523 426 -792 166 -394 256 -746 319 -1243 31 -247 31 -723 0 -975 -58
-467 -137 -785 -294 -1180 -263 -663 -674 -1240 -1239 -1740 -294 -261 -698
-518 -1104 -705 -161 -75 -545 -209 -725 -254 -581 -146 -1222 -176 -1810 -85
-318 49 -693 151 -980 267 -182 73 -444 201 -552 269 -21 12 -40 23 -43 23 -2
0 -61 36 -129 79 -767 487 -1359 1170 -1722 1988 -402 905 -491 1914 -257
2903 43 182 158 527 228 685 8 17 23 53 35 80 12 28 53 111 91 187 336 672
882 1292 1499 1703 41 28 77 53 78 58 2 4 7 7 12 7 4 0 65 35 136 78 139 84
424 228 569 287 50 20 101 41 115 47 14 5 61 23 105 38 576 203 1210 291 1795
250z"/>
<path d="M3660 6320 c-18 -4 -21 -8 -12 -14 7 -4 11 -14 8 -22 -4 -10 2 -14
18 -14 28 0 39 20 22 41 -7 10 -20 13 -36 9z"/>
<path d="M3859 6227 c-8 -19 -22 -29 -46 -33 l-34 -6 20 -22 c12 -13 21 -36
21 -54 0 -36 2 -37 30 -20 15 10 27 10 51 1 l31 -12 -6 31 c-5 24 -1 37 16 55
l21 23 -26 0 c-20 0 -33 9 -47 32 l-19 31 -12 -26z"/>
<path d="M4190 6150 c0 -5 -6 -10 -14 -10 -8 0 -13 -10 -13 -24 0 -18 5 -23
23 -23 13 0 24 5 24 12 0 8 4 15 8 17 4 2 0 11 -10 21 -10 9 -18 13 -18 7z"/>
<path d="M2758 6139 c-40 -23 -16 -80 44 -104 49 -19 58 -29 58 -66 0 -30 35
-65 113 -114 25 -17 46 -33 47 -38 0 -4 -14 -32 -31 -62 -30 -54 -53 -69 -95
-65 -11 1 -21 1 -24 0 -12 -4 -50 -9 -190 -26 l-149 -17 16 -21 c9 -12 32 -34
50 -48 19 -15 84 -74 144 -133 l110 -106 -6 -57 c-4 -31 -11 -73 -15 -92 -5
-19 -12 -63 -15 -96 -3 -34 -10 -77 -15 -95 -12 -42 -13 -89 -2 -89 5 0 17 9
27 20 16 17 16 20 2 20 -8 0 -18 -5 -20 -10 -3 -6 -4 -5 -3 2 2 7 15 12 29 11
19 -1 28 5 38 29 16 38 51 62 80 53 16 -5 19 -4 14 5 -6 9 -4 11 5 5 7 -4 15
-3 19 2 9 12 188 142 206 150 10 3 13 12 10 23 -6 19 11 37 23 25 3 -3 0 -10
-8 -15 -8 -6 -11 -10 -7 -10 18 0 67 42 61 52 -4 7 -2 8 4 4 14 -9 129 73 136
97 2 10 11 17 19 15 23 -5 180 114 164 125 -8 6 -6 7 6 3 11 -4 36 8 68 32 27
20 44 39 38 41 -6 2 -16 -4 -21 -13 -5 -9 -15 -16 -23 -16 -7 0 -21 -7 -30
-16 -9 -9 -19 -13 -23 -9 -10 9 27 35 51 35 12 0 17 5 14 14 -4 11 2 14 28 11
25 -2 41 3 59 20 l26 24 -53 10 c-58 11 -49 9 -281 45 -167 26 -196 35 -196
62 0 16 -110 376 -117 384 -3 3 -2 -16 2 -41 10 -67 -10 -79 -61 -38 -79 63
-113 71 -154 39 -34 -27 -64 -25 -79 4 -7 13 -24 29 -38 35 -29 13 -33 13 -55
0z m727 -709 c-3 -5 -11 -10 -16 -10 -6 0 -7 5 -4 10 3 6 11 10 16 10 6 0 7
-4 4 -10z m-105 -74 c0 -9 -71 -48 -77 -42 -8 7 -7 8 37 29 39 18 40 19 40 13z
m-529 -172 c-5 -16 -10 -21 -10 -12 -1 18 10 51 15 45 2 -1 -1 -16 -5 -33z
m239 -4 c-20 -13 -33 -13 -25 0 3 6 14 10 23 10 15 0 15 -2 2 -10z m30 -24 c0
-2 -9 -6 -20 -9 -11 -3 -20 -1 -20 4 0 5 9 9 20 9 11 0 20 -2 20 -4z m-258
-38 c-12 -12 -32 -2 -31 15 0 9 2 9 6 0 7 -19 23 -16 24 5 0 11 2 13 6 4 3 -8
1 -18 -5 -24z m148 -28 c-14 -10 -27 -17 -29 -14 -6 5 31 33 44 33 6 1 -1 -8
-15 -19z m-173 -12 c-3 -8 -6 -5 -6 6 -1 11 2 17 5 13 3 -3 4 -12 1 -19z m34
-14 c-9 -28 -9 -29 -10 -3 -1 14 2 29 6 32 11 12 13 2 4 -29z"/>
<path d="M8528 6073 c-1 -5 -37 -33 -78 -64 -69 -52 -191 -159 -145 -128 11 8
22 16 25 19 24 26 183 141 187 136 3 -3 -24 -36 -60 -73 -37 -37 -67 -70 -67
-74 0 -5 41 33 90 84 50 50 90 95 90 99 0 10 -37 10 -42 1z"/>
<path d="M4397 6050 c-178 -21 -440 -101 -510 -156 -50 -40 -26 -72 74 -98 63
-17 250 -14 627 9 140 8 258 15 263 15 22 0 4 -35 -64 -127 -76 -101 -124
-159 -190 -227 -21 -21 -41 -45 -45 -51 -4 -7 -32 -41 -62 -75 -158 -181 -211
-250 -191 -250 8 0 126 134 176 198 5 7 24 28 40 46 141 155 274 304 308 346
6 8 31 44 55 80 36 56 48 66 80 72 40 7 -4 5 -308 -14 -266 -17 -708 -17 -737
0 -77 43 47 119 297 181 69 17 165 35 213 40 48 5 91 11 94 15 8 7 -30 6 -120
-4z"/>
<path d="M4538 6043 c7 -3 16 -2 19 1 4 3 -2 6 -13 5 -11 0 -14 -3 -6 -6z"/>
<path d="M8040 5938 c-58 -62 -129 -138 -157 -169 -29 -31 -53 -59 -53 -64 0
-4 9 4 21 19 11 14 25 26 30 26 5 0 26 19 47 42 54 61 151 166 195 210 20 22
37 41 37 43 0 17 -27 -8 -120 -107z"/>
<path d="M3400 5950 c-52 -9 -105 -28 -98 -35 3 -3 22 2 44 11 27 12 67 17
134 17 67 0 107 -5 134 -17 22 -9 41 -14 44 -11 13 12 -132 46 -188 44 -14 -1
-45 -5 -70 -9z"/>
<path d="M3265 5900 c-3 -5 -2 -10 4 -10 5 0 13 5 16 10 3 6 2 10 -4 10 -5 0
-13 -4 -16 -10z"/>
<path d="M3670 5904 c0 -2 14 -11 32 -20 17 -9 51 -36 75 -60 24 -24 43 -40
43 -35 0 14 -106 108 -129 114 -12 3 -21 3 -21 1z"/>
<path d="M4122 5892 c-15 -5 -16 -42 -1 -42 6 0 16 6 23 13 15 15 -1 36 -22
29z"/>
<path d="M8354 5858 l-19 -23 23 19 c21 18 27 26 19 26 -2 0 -12 -10 -23 -22z"/>
<path d="M8230 5823 l-45 -47 45 39 c41 35 58 55 48 55 -2 0 -24 -21 -48 -47z"/>
<path d="M5298 5853 c12 -2 32 -2 45 0 12 2 2 4 -23 4 -25 0 -35 -2 -22 -4z"/>
<path d="M5056 5842 c-3 -5 8 -6 25 -4 16 2 29 6 29 8 0 8 -49 4 -54 -4z"/>
<path d="M5153 5843 c9 -2 25 -2 35 0 9 3 1 5 -18 5 -19 0 -27 -2 -17 -5z"/>
<path d="M2790 5831 c0 -5 5 -13 10 -16 6 -3 10 -17 10 -30 0 -26 15 -41 25
-25 3 5 2 10 -4 10 -5 0 -11 14 -13 32 -3 28 -28 55 -28 29z"/>
<path d="M5008 5833 c6 -2 18 -2 25 0 6 3 1 5 -13 5 -14 0 -19 -2 -12 -5z"/>
<path d="M2747 5784 c-4 -4 -3 -12 2 -18 4 -6 13 -24 19 -41 11 -29 11 -28 5
10 -6 43 -15 60 -26 49z"/>
<path d="M3830 5766 c0 -5 8 -23 19 -40 23 -39 41 -94 52 -160 l8 -51 -4 55
c-2 30 -9 71 -14 90 -11 36 -60 122 -61 106z"/>
<path d="M8155 5760 c-3 -5 -2 -10 4 -10 5 0 13 5 16 10 3 6 2 10 -4 10 -5 0
-13 -4 -16 -10z"/>
<path d="M8240 5750 c-6 -11 -9 -20 -8 -20 2 0 11 9 21 20 9 11 13 20 7 20 -5
0 -14 -9 -20 -20z"/>
<path d="M8091 5699 c-13 -11 -22 -22 -19 -24 2 -3 15 6 28 20 28 30 24 32 -9
4z"/>
<path d="M8194 5698 l-19 -23 23 19 c21 18 27 26 19 26 -2 0 -12 -10 -23 -22z"/>
<path d="M3929 5708 c-8 -27 -5 -38 11 -38 23 0 34 26 14 34 -17 6 -24 7 -25
4z"/>
<path d="M7398 5633 c-33 -32 -64 -67 -70 -78 -6 -11 14 6 43 39 29 32 67 67
84 77 16 11 24 19 17 19 -8 0 -41 -26 -74 -57z"/>
<path d="M7510 5661 c0 -34 -13 -68 -47 -123 -13 -21 -20 -38 -15 -38 13 0 71
107 77 144 4 20 2 36 -4 40 -7 5 -11 -4 -11 -23z"/>
<path d="M7785 5666 c-6 -8 -20 -28 -33 -45 -13 -17 -22 -31 -19 -31 7 0 69
81 65 85 -2 2 -8 -2 -13 -9z"/>
<path d="M8004 5617 l-29 -32 30 25 c17 14 32 26 34 28 2 1 2 4 -1 7 -2 3 -18
-10 -34 -28z"/>
<path d="M8135 5640 c-3 -5 -1 -10 4 -10 6 0 11 5 11 10 0 6 -2 10 -4 10 -3 0
-8 -4 -11 -10z"/>
<path d="M8076 5583 c-6 -14 -5 -15 5 -6 7 7 10 15 7 18 -3 3 -9 -2 -12 -12z"/>
<path d="M7920 5535 c-24 -25 -42 -45 -39 -45 3 0 25 20 49 45 24 25 42 45 39
45 -3 0 -25 -20 -49 -45z"/>
<path d="M7665 5522 c-6 -4 -37 -38 -69 -77 -103 -123 -219 -247 -269 -287
-27 -21 -46 -38 -42 -38 25 0 227 204 330 334 6 6 23 26 39 44 29 31 32 40 11
24z"/>
<path d="M2499 5499 c-14 -26 8 -53 34 -43 21 8 22 50 1 58 -22 8 -22 8 -35
-15z m36 -18 c-3 -6 -11 -11 -16 -11 -5 0 -4 6 3 14 14 16 24 13 13 -3z"/>
<path d="M3893 5448 c-34 -166 -161 -297 -323 -335 l-55 -12 50 5 c138 16 272
135 327 292 10 30 18 66 16 81 -2 18 -6 9 -15 -31z"/>
<path d="M7768 5375 c-54 -57 -98 -107 -98 -111 0 -5 7 0 15 11 9 10 54 59
102 107 47 49 84 90 82 92 -2 2 -48 -43 -101 -99z"/>
<path d="M7965 5470 c-3 -5 -1 -10 4 -10 6 0 11 5 11 10 0 6 -2 10 -4 10 -3 0
-8 -4 -11 -10z"/>
<path d="M2310 5451 c-5 -11 -7 -28 -4 -38 5 -15 4 -15 -5 -3 -5 8 -13 11 -17
7 -4 -4 0 -15 9 -25 9 -10 23 -38 32 -62 9 -24 25 -53 36 -63 16 -15 20 -30
18 -71 -1 -28 1 -59 5 -68 15 -44 15 -51 -1 -64 -10 -7 -22 -13 -28 -13 -5 -1
1 8 15 19 34 26 6 26 -38 0 -18 -11 -39 -20 -47 -20 -8 0 -21 -12 -30 -27 -15
-27 -16 -27 -10 -3 5 22 4 23 -5 7 -9 -14 -8 -24 5 -43 9 -14 21 -22 28 -18 7
4 9 4 5 0 -3 -4 0 -19 8 -34 13 -25 12 -28 -6 -41 -33 -22 -23 -32 15 -14 33
16 46 33 26 33 -5 0 -15 16 -22 35 -7 19 -19 35 -26 35 -18 0 -16 11 8 40 15
18 19 20 15 7 -6 -17 -1 -18 62 -12 37 3 80 9 95 11 26 5 27 4 22 -23 -4 -21
-1 -18 14 14 11 23 33 51 50 64 17 13 31 28 31 35 0 16 36 28 52 17 7 -4 21
-6 32 -4 10 1 16 -2 12 -8 -6 -10 71 -37 80 -28 3 3 -7 8 -21 11 -15 4 -36 16
-48 27 -12 11 -27 17 -34 15 -7 -3 -13 -2 -13 3 0 15 -54 45 -58 32 -6 -18
-22 -2 -22 23 0 29 -26 54 -41 39 -15 -15 -18 -45 -7 -67 8 -14 6 -21 -5 -28
-10 -5 -14 -15 -10 -25 16 -42 -37 25 -60 76 -15 32 -27 48 -30 40 -5 -13 -7
-8 -11 37 -1 7 -16 35 -35 64 -28 43 -33 58 -28 91 6 43 3 48 -13 20z m58
-166 c-3 -3 -9 2 -12 12 -6 14 -5 15 5 6 7 -7 10 -15 7 -18z m165 -69 c6 -16
-1 -26 -17 -26 -6 0 -4 5 4 10 10 6 11 10 3 10 -7 0 -13 5 -13 10 0 15 17 12
23 -4z m4 -58 c-3 -8 -6 -5 -6 6 -1 11 2 17 5 13 3 -3 4 -12 1 -19z m-140 -10
c-3 -8 -6 -5 -6 6 -1 11 2 17 5 13 3 -3 4 -12 1 -19z m118 -18 c3 -5 1 -10 -4
-10 -6 0 -11 5 -11 10 0 6 2 10 4 10 3 0 8 -4 11 -10z m5 -40 c0 -5 -5 -10
-11 -10 -5 0 -7 5 -4 10 3 6 8 10 11 10 2 0 4 -4 4 -10z m-195 -49 c3 -5 2
-12 -3 -15 -5 -3 -9 1 -9 9 0 17 3 19 12 6z"/>
<path d="M7230 5443 c-32 -5 -90 -35 -90 -46 0 -5 15 1 34 12 33 21 66 28 66
14 0 -17 -26 -80 -47 -115 -18 -31 -20 -44 -14 -97 10 -84 16 -83 17 3 0 56 5
79 21 102 22 31 42 88 40 117 0 9 -1 16 -1 16 -1 -1 -12 -4 -26 -6z"/>
<path d="M6985 5367 c-16 -34 -29 -68 -29 -74 1 -7 -2 -11 -6 -8 -4 3 -18 -14
-31 -38 -12 -23 -28 -53 -35 -67 -8 -14 -14 -30 -14 -37 0 -30 21 -18 64 35
25 31 56 67 68 79 34 34 16 36 -20 2 -42 -40 -40 -20 8 71 22 41 40 80 40 87
0 28 -16 10 -45 -50z"/>
<path d="M6453 5388 c-29 -18 -54 -38 -57 -45 -3 -7 17 3 43 22 48 35 88 46
78 23 -19 -47 -19 -53 2 -28 23 28 24 53 1 58 -8 1 -38 -12 -67 -30z"/>
<path d="M5588 5380 c-24 -16 -53 -39 -64 -51 -10 -12 6 -3 36 20 45 34 90 53
90 38 0 -4 -20 -40 -65 -119 -9 -16 -14 -28 -11 -28 7 0 96 138 96 149 0 7
-22 21 -34 21 -1 0 -23 -13 -48 -30z"/>
<path d="M6281 5388 c-24 -12 -73 -50 -110 -85 -36 -34 -70 -63 -74 -63 -11 0
0 34 29 92 13 26 20 50 15 53 -12 7 -17 0 -73 -124 -34 -75 -45 -108 -37 -115
7 -8 23 4 52 39 37 45 134 142 170 171 26 21 79 46 85 39 12 -11 -29 -99 -84
-182 -31 -46 -53 -87 -49 -91 8 -8 52 41 93 103 15 22 36 48 47 57 17 15 18
19 5 27 -12 9 -13 15 -1 47 11 30 11 38 0 45 -19 12 -18 12 -68 -13z"/>
<path d="M7986 5363 c-19 -26 -52 -81 -72 -121 -37 -72 -38 -75 -19 -88 27
-20 72 -17 114 8 52 31 173 122 195 147 38 42 9 29 -64 -30 -41 -33 -103 -76
-138 -96 -82 -46 -96 -36 -58 41 15 31 33 62 39 69 20 21 67 96 67 107 0 25
-33 6 -64 -37z"/>
<path d="M5397 5370 c-26 -16 -73 -54 -104 -85 -83 -80 -93 -74 -43 25 24 48
27 60 15 60 -9 0 -23 -16 -31 -37 -8 -21 -33 -73 -54 -116 -35 -68 -38 -78
-23 -84 12 -5 26 5 47 33 53 68 179 186 213 200 18 8 33 19 33 24 0 14 0 14
-53 -20z"/>
<path d="M6044 5378 c-16 -12 -31 -25 -34 -28 -3 -3 -25 -20 -49 -38 -27 -19
-38 -32 -28 -32 21 0 21 -8 0 -32 -9 -10 -12 -18 -7 -18 5 0 20 16 34 34 14
19 39 43 56 55 42 29 74 60 74 71 0 16 -15 12 -46 -12z"/>
<path d="M5466 5376 c7 -19 -28 -91 -88 -180 -48 -70 -55 -86 -39 -86 9 0 101
114 101 126 0 4 8 12 17 19 11 8 18 28 19 52 1 21 3 47 5 57 2 10 -2 21 -9 23
-7 3 -10 -1 -6 -11z"/>
<path d="M6610 5348 c-51 -71 -99 -158 -102 -186 -2 -21 3 -28 25 -36 58 -21
164 42 299 177 68 68 77 86 15 31 -24 -22 -52 -46 -63 -54 -84 -65 -141 -104
-182 -125 -39 -20 -48 -21 -55 -10 -9 17 6 48 73 152 28 41 50 79 50 84 0 23
-32 5 -60 -33z"/>
<path d="M4944 5362 c-11 -10 -43 -35 -73 -55 -29 -20 -46 -37 -37 -37 22 0
20 -6 -15 -54 -27 -36 -26 -35 14 9 25 27 43 54 40 60 -4 5 -3 7 2 3 4 -4 22
4 39 18 17 14 41 33 53 42 12 9 22 20 23 25 0 13 -26 7 -46 -11z"/>
<path d="M5837 5361 c-49 -25 -135 -92 -171 -132 -43 -48 -57 -79 -45 -101 21
-39 89 -13 204 76 22 17 49 36 59 42 11 6 22 16 24 23 2 7 -24 -8 -59 -33
-108 -78 -189 -118 -210 -106 -18 12 1 47 63 110 58 59 116 95 186 113 29 7
49 16 46 20 -13 13 -60 7 -97 -12z"/>
<path d="M4730 5343 c-77 -45 -171 -126 -196 -169 -29 -50 -29 -50 0 -69 22
-15 28 -15 61 -1 21 9 66 38 101 66 35 27 67 50 72 50 5 0 17 10 28 22 23 26
15 22 -96 -53 -134 -89 -197 -100 -151 -25 51 82 175 167 266 183 36 6 38 7
15 14 -42 12 -53 10 -100 -18z"/>
<path d="M7062 5339 c-18 -16 -32 -33 -32 -36 0 -4 15 6 32 23 18 16 35 30 37
32 2 1 2 4 0 7 -3 2 -19 -9 -37 -26z"/>
<path d="M7625 5320 c-38 -75 -32 -103 19 -84 9 3 16 10 16 15 0 5 -9 4 -20
-3 -26 -17 -36 -4 -20 29 45 99 50 131 5 43z"/>
<path d="M8235 5360 c-3 -5 -2 -10 4 -10 5 0 13 5 16 10 3 6 2 10 -4 10 -5 0
-13 -4 -16 -10z"/>
<path d="M5154 5345 c-10 -8 -14 -15 -8 -15 6 0 17 7 24 15 16 19 9 19 -16 0z"/>
<path d="M5037 5303 c-13 -21 -29 -48 -35 -60 -7 -12 -18 -27 -24 -35 -21 -21
-61 -99 -54 -105 5 -6 36 21 36 32 0 19 133 165 151 165 4 0 10 7 13 16 4 10
-7 5 -26 -12 -28 -23 -33 -24 -36 -10 -2 9 2 23 8 31 9 11 9 15 1 15 -6 0 -21
-17 -34 -37z"/>
<path d="M6480 5315 c-7 -9 -11 -18 -8 -20 3 -3 11 1 18 10 7 9 11 18 8 20 -3
3 -11 -1 -18 -10z"/>
<path d="M7132 5207 l-24 -42 26 30 c21 25 34 55 24 55 -2 0 -14 -19 -26 -43z"/>
<path d="M6425 5220 c-3 -11 -10 -20 -14 -20 -4 0 -13 -12 -20 -27 -10 -26 -9
-25 18 7 17 19 31 41 31 48 0 19 -8 14 -15 -8z"/>
<path d="M3396 5205 c-15 -14 -29 -25 -32 -25 -11 0 -89 -63 -87 -71 2 -4 -3
-6 -11 -3 -7 3 -18 -2 -25 -10 -10 -12 -9 -17 8 -25 29 -16 39 -13 17 4 -11 8
-15 15 -9 15 6 0 24 -13 39 -29 16 -16 57 -45 92 -65 l62 -35 0 26 c0 33 9 25
12 -10 2 -19 11 -30 33 -39 16 -7 36 -19 43 -28 7 -8 1 16 -13 55 -13 38 -29
71 -35 73 -5 2 -7 8 -4 13 8 14 -35 131 -54 147 -10 7 -11 12 -4 12 7 0 12 5
12 10 0 17 -16 11 -44 -15z m-1 -45 c-3 -5 -16 -10 -28 -9 -21 0 -21 1 -2 9
28 12 37 12 30 0z m58 -30 c3 -11 1 -18 -4 -14 -5 3 -9 12 -9 20 0 20 7 17 13
-6z m-118 0 c-3 -5 -12 -10 -18 -10 -7 0 -6 4 3 10 19 12 23 12 15 0z m45
-104 c-7 -7 -13 -7 -20 0 -6 6 -3 10 10 10 13 0 16 -4 10 -10z m40 -10 c0 -11
-19 -15 -25 -6 -3 5 1 10 9 10 9 0 16 -2 16 -4z"/>
<path d="M5553 5210 c-11 -16 -10 -18 2 -14 8 4 15 12 15 20 0 19 -3 18 -17
-6z"/>
<path d="M5860 5150 c-6 -11 -8 -20 -6 -20 3 0 10 9 16 20 6 11 8 20 6 20 -3
0 -10 -9 -16 -20z"/>
<path d="M4760 5139 c-7 -11 -10 -23 -7 -25 2 -2 9 7 15 21 14 30 7 33 -8 4z"/>
<path d="M5842 5100 c0 -14 2 -19 5 -12 2 6 2 18 0 25 -3 6 -5 1 -5 -13z"/>
<path d="M7238 5113 c6 -2 18 -2 25 0 6 3 1 5 -13 5 -14 0 -19 -2 -12 -5z"/>
<path d="M4741 5084 c0 -11 3 -14 6 -6 3 7 2 16 -1 19 -3 4 -6 -2 -5 -13z"/>
<path d="M7610 5040 c-9 -6 -10 -10 -3 -10 6 0 15 5 18 10 8 12 4 12 -15 0z"/>
<path d="M4323 5029 c-74 -21 -85 -147 -16 -178 30 -14 93 -14 93 -1 0 6 -17
10 -38 10 -50 0 -72 24 -72 77 0 50 23 73 73 73 20 0 37 5 37 10 0 6 -4 10 -9
10 -5 0 -15 2 -23 4 -7 2 -28 0 -45 -5z"/>
<path d="M4520 5020 c-6 -11 -7 -20 -2 -20 10 0 32 21 32 32 0 16 -19 8 -30
-12z"/>
<path d="M4640 4940 c0 -82 3 -100 15 -100 12 0 15 18 15 100 0 82 -3 100 -15
100 -12 0 -15 -18 -15 -100z"/>
<path d="M4800 5020 c-6 -11 -7 -20 -2 -20 10 0 32 21 32 32 0 16 -19 8 -30
-12z"/>
<path d="M4920 4942 l0 -98 49 -2 c42 -2 53 2 65 20 34 49 8 118 -45 118 -16
0 -29 -5 -29 -11 0 -5 -4 -7 -10 -4 -5 3 -10 22 -10 41 0 19 -4 34 -10 34 -6
0 -10 -39 -10 -98z m96 -6 c3 -13 4 -35 2 -47 -2 -19 -9 -24 -33 -24 -27 0
-30 4 -33 33 -5 47 3 62 32 62 19 0 27 -7 32 -24z"/>
<path d="M6542 5020 c-10 -16 -10 -20 1 -20 6 0 18 9 25 20 10 16 10 20 -1 20
-6 0 -18 -9 -25 -20z"/>
<path d="M7082 4943 c2 -66 7 -98 16 -101 9 -3 12 21 12 97 0 84 -3 101 -15
101 -13 0 -15 -15 -13 -97z"/>
<path d="M2900 5004 c-32 -31 -14 -31 25 1 18 15 24 24 15 24 -8 0 -26 -11
-40 -25z"/>
<path d="M6980 5014 c0 -17 22 -14 28 4 2 7 -3 12 -12 12 -9 0 -16 -7 -16 -16z"/>
<path d="M3292 4975 c-30 -62 -27 -71 4 -12 14 27 24 51 22 53 -3 2 -14 -17
-26 -41z"/>
<path d="M6673 5003 c-4 -10 -11 -22 -17 -26 -8 -6 -7 -10 2 -14 7 -3 12 -23
12 -48 0 -24 3 -50 6 -59 7 -17 54 -22 54 -6 0 6 -7 10 -15 10 -11 0 -15 12
-15 50 0 38 4 50 15 50 8 0 15 5 15 10 0 6 -7 10 -15 10 -8 0 -15 6 -15 14 0
23 -19 29 -27 9z"/>
<path d="M4477 4962 c-23 -25 -22 -84 1 -105 20 -19 77 -23 87 -7 4 6 -8 10
-27 10 -32 0 -58 14 -58 32 0 4 20 8 44 8 53 0 62 10 44 47 -17 35 -66 43 -91
15z m71 -24 c3 -15 -4 -18 -32 -18 -39 0 -39 0 -30 25 9 22 58 16 62 -7z"/>
<path d="M4751 4954 c-12 -15 -21 -33 -21 -41 0 -18 20 -56 34 -65 16 -11 74
-10 81 2 4 6 -8 10 -28 10 -19 0 -40 7 -47 15 -16 19 -10 26 21 27 55 0 67 7
62 30 -9 35 -23 48 -53 48 -19 0 -36 -9 -49 -26z m77 -16 c3 -15 -4 -18 -32
-18 -39 0 -39 0 -30 25 9 22 58 16 62 -7z"/>
<path d="M5120 4912 c0 -83 17 -98 22 -20 2 43 7 55 26 64 15 8 20 14 12 19
-6 4 -17 2 -24 -4 -9 -7 -16 -7 -24 1 -9 9 -12 -5 -12 -60z"/>
<path d="M5252 4960 c-45 -42 -15 -120 46 -120 38 0 62 28 62 72 0 63 -62 90
-108 48z m77 -14 c31 -37 -9 -103 -46 -80 -37 23 -24 94 17 94 10 0 23 -6 29
-14z"/>
<path d="M5430 4907 c0 -85 22 -89 30 -6 5 50 7 54 30 54 23 0 25 -4 28 -57 2
-43 7 -58 17 -58 11 0 15 14 15 54 0 69 -15 86 -75 84 l-45 -2 0 -69z"/>
<path d="M5632 4968 c-21 -21 -13 -47 18 -63 17 -9 30 -22 30 -30 0 -10 -10
-15 -30 -15 -16 0 -30 -4 -30 -10 0 -11 39 -13 64 -4 28 11 19 53 -14 72 -35
20 -34 36 3 40 15 2 25 8 22 13 -9 13 -49 11 -63 -3z"/>
<path d="M5869 4976 c-8 -8 3 -136 12 -136 5 0 9 22 9 48 0 50 12 72 41 72 21
0 29 -20 29 -76 0 -24 5 -44 10 -44 14 0 12 114 -2 128 -15 15 -55 16 -63 2
-5 -8 -11 -8 -19 -1 -7 6 -15 9 -17 7z"/>
<path d="M6066 4958 c-22 -30 -20 -81 2 -101 27 -25 78 -22 96 5 36 51 8 118
-49 118 -24 0 -39 -7 -49 -22z m84 -23 c14 -37 -3 -75 -35 -75 -17 0 -29 8
-37 25 -16 36 3 75 37 75 18 0 28 -7 35 -25z"/>
<path d="M6252 4968 c-19 -19 -14 -36 18 -60 17 -12 30 -28 30 -35 0 -8 -12
-13 -30 -13 -16 0 -30 -4 -30 -10 0 -16 66 -12 80 5 16 20 5 50 -25 63 -33 15
-33 42 0 42 14 0 25 5 25 10 0 14 -54 12 -68 -2z"/>
<path d="M6496 4958 c-22 -30 -20 -81 2 -101 20 -18 92 -23 92 -7 0 6 -16 10
-35 10 -24 0 -37 6 -45 20 -6 11 -9 20 -8 21 2 0 23 1 48 2 35 2 46 6 48 20
10 49 -73 77 -102 35z m77 -12 c8 -19 -1 -26 -35 -26 -26 0 -37 17 -21 33 12
12 51 7 56 -7z"/>
<path d="M6806 4965 c-55 -55 -8 -140 68 -121 46 12 58 104 16 126 -27 15 -66
12 -84 -5z m73 -19 c31 -37 -9 -103 -46 -80 -37 23 -24 94 17 94 10 0 23 -6
29 -14z"/>
<path d="M6984 4966 c-10 -25 1 -119 14 -124 9 -3 12 15 12 67 0 66 -12 93
-26 57z"/>
<path d="M7197 4962 c-23 -25 -22 -84 1 -105 20 -19 77 -23 87 -7 4 6 -8 10
-27 10 -34 0 -58 14 -58 35 0 6 18 10 44 9 50 -2 61 10 42 47 -15 31 -65 38
-89 11z m71 -24 c3 -15 -4 -18 -32 -18 -39 0 -39 0 -30 25 9 22 58 16 62 -7z"/>
<path d="M7373 4973 c-25 -10 -14 -52 18 -68 37 -20 33 -39 -9 -43 -36 -4 -34
-22 3 -22 62 0 78 48 25 78 -39 22 -39 42 1 42 17 0 28 4 24 10 -6 10 -41 12
-62 3z"/>
<path d="M3387 4948 c-9 -13 -29 -39 -46 -58 -17 -19 -28 -36 -26 -39 3 -2 14
8 26 23 11 14 26 32 32 39 37 40 49 57 40 57 -6 0 -18 -10 -26 -22z"/>
<path d="M3170 4955 c0 -7 27 -34 53 -54 33 -26 17 4 -18 32 -19 15 -35 25
-35 22z"/>
<path d="M7505 4854 c-46 -99 -49 -148 -12 -180 16 -13 38 -24 50 -23 16 0 13
3 -13 12 -63 22 -63 61 -1 215 31 77 17 63 -24 -24z"/>
<path d="M3248 4890 c-2 -8 21 -36 61 -69 36 -31 75 -64 85 -73 11 -10 22 -16
24 -13 6 6 -49 55 -62 55 -5 0 -1 10 10 22 10 13 12 17 3 11 -12 -10 -23 -7
-59 17 -25 16 -47 37 -51 47 -5 14 -7 14 -11 3z"/>
<path d="M3177 4873 c-14 -13 -6 -23 17 -23 14 0 28 -5 31 -10 7 -11 -24 -8
-57 5 -10 4 -18 3 -18 -2 0 -11 77 -38 100 -36 8 1 18 -4 22 -10 4 -6 10 -8
14 -5 3 4 -8 20 -26 35 -66 56 -71 59 -83 46z m73 -53 c0 -5 -4 -10 -10 -10
-5 0 -10 5 -10 10 0 6 5 10 10 10 6 0 10 -4 10 -10z"/>
<path d="M3424 4854 c-18 -14 -18 -15 4 -4 12 6 22 13 22 15 0 8 -5 6 -26 -11z"/>
<path d="M3072 4778 c-6 -24 -11 -47 -11 -52 1 -5 -4 -12 -9 -15 -6 -3 -14
-19 -17 -34 -6 -22 -4 -26 8 -21 8 3 18 1 21 -5 4 -6 14 -7 23 -4 11 5 14 3 9
-6 -6 -9 -2 -12 10 -10 11 2 24 1 29 -2 6 -4 35 -14 65 -24 30 -10 60 -22 67
-27 7 -6 13 -4 17 4 3 7 4 2 2 -10 -3 -13 -2 -21 1 -18 3 3 14 -5 23 -17 10
-12 21 -19 25 -15 4 4 0 14 -9 23 -9 9 -16 24 -16 34 0 21 27 108 41 134 12
21 7 30 -19 33 -9 1 -62 18 -117 38 -55 20 -107 36 -116 36 -11 0 -20 -14 -27
-42z m38 12 c0 -11 -2 -20 -4 -20 -2 0 -6 9 -9 20 -3 11 -1 20 4 20 5 0 9 -9
9 -20z m-23 -22 c-3 -8 -6 -5 -6 6 -1 11 2 17 5 13 3 -3 4 -12 1 -19z m155 -7
c50 -20 63 -24 73 -22 6 2 7 -1 3 -5 -5 -4 -23 -8 -40 -10 -26 -2 -29 -1 -13
6 l20 9 -20 1 c-22 1 -77 29 -58 30 7 0 22 -4 35 -9z m101 -39 c-7 -4 -17 -26
-22 -47 -8 -34 -9 -36 -10 -12 -1 34 15 67 32 67 9 0 9 -2 0 -8z m-56 -64 c-3
-8 -6 -5 -6 6 -1 11 2 17 5 13 3 -3 4 -12 1 -19z m10 -40 c-3 -8 -6 -5 -6 6
-1 11 2 17 5 13 3 -3 4 -12 1 -19z m-52 2 c7 -12 -12 -12 -40 0 -18 8 -17 9 7
9 15 1 30 -3 33 -9z"/>
<path d="M3021 4771 c-8 -18 -14 -39 -14 -47 0 -8 -5 -14 -10 -14 -6 0 -8 -2
-5 -5 8 -9 38 6 32 16 -2 5 0 18 6 29 6 12 10 29 8 38 -2 12 -8 6 -17 -17z"/>
<path d="M7780 4769 c0 -5 5 -7 10 -4 6 3 10 8 10 11 0 2 -4 4 -10 4 -5 0 -10
-5 -10 -11z"/>
<path d="M7720 4731 c-25 -15 -66 -36 -93 -46 -26 -10 -46 -20 -43 -22 9 -10
186 78 186 93 0 6 -2 5 -50 -25z"/>
<path d="M2928 4623 c7 -3 16 -2 19 1 4 3 -2 6 -13 5 -11 0 -14 -3 -6 -6z"/>
<path d="M3031 4595 c-17 -20 -31 -30 -31 -24 0 8 -4 8 -15 -1 -9 -7 -13 -15
-10 -18 3 -3 -5 -12 -17 -19 -22 -13 -22 -13 6 -7 27 7 49 24 100 82 11 12 14
22 9 22 -6 0 -25 -16 -42 -35z"/>
<path d="M3360 4525 c-1 -5 -2 -13 -1 -17 0 -4 -7 -4 -17 -1 -15 6 -15 5 -3
-10 7 -9 11 -27 8 -39 -6 -22 -6 -22 8 -4 15 20 15 20 16 0 0 -10 3 -13 6 -6
2 6 9 10 14 6 5 -3 9 0 9 5 0 6 -5 11 -11 11 -6 0 -9 7 -5 15 3 8 1 15 -4 15
-5 0 -11 8 -13 18 -3 9 -6 13 -7 7z"/>
<path d="M2822 4490 c0 -14 2 -19 5 -12 2 6 2 18 0 25 -3 6 -5 1 -5 -13z"/>
<path d="M2940 4501 c0 -5 5 -13 10 -16 6 -3 10 -2 10 4 0 5 -4 13 -10 16 -5
3 -10 2 -10 -4z"/>
<path d="M3272 4420 c0 -19 2 -27 5 -17 2 9 2 25 0 35 -3 9 -5 1 -5 -18z"/>
<path d="M2965 4399 c-4 -6 -5 -12 -2 -15 2 -3 7 2 10 11 7 17 1 20 -8 4z"/>
<path d="M3505 4400 c-3 -5 -1 -10 4 -10 6 0 11 5 11 10 0 6 -2 10 -4 10 -3 0
-8 -4 -11 -10z"/>
<path d="M3335 4360 c3 -5 8 -10 11 -10 2 0 4 5 4 10 0 6 -5 10 -11 10 -5 0
-7 -4 -4 -10z"/>
<path d="M3340 4331 c0 -6 4 -13 10 -16 6 -3 7 1 4 9 -7 18 -14 21 -14 7z"/>
</g>
</svg>
